<?xml version="1.0" encoding="utf-8"?>
<!-- Generator: Adobe Illustrator 21.1.0, SVG Export Plug-In . SVG Version: 6.00 Build 0)  -->
<svg version="1.1" id="Camada_1" xmlns="http://www.w3.org/2000/svg" xmlns:xlink="http://www.w3.org/1999/xlink" x="0px" y="0px"
	 viewBox="0 0 872 878" style="enable-background:new 0 0 872 878;" xml:space="preserve">
<g>
	<path d="M135,141.9c0,92.4,0,184.8,0,277.1c0.4,0.2,0.8,0.5,1.2,0.7C200,350.3,263.7,281,327.9,211.2c7.6,10.2,14.9,19.9,22.1,29.6
		c79.7,107.3,159.4,214.6,239.1,321.9c8,10.8,16,21.7,24.2,32.4c1.1,1.4,3.4,2.8,5.2,2.8c38.3,0.2,76.7,0.1,115,0.1
		c0.8,0,1.6-0.1,3.5-0.3C624.5,441.9,512.5,286.8,400.1,131.3c4.4-4.8,8.7-9.7,13.2-14.6c28.4-30.9,56.8-61.8,85.3-92.6
		c1.3-1.4,3.9-2.6,5.7-2.3c71.9,11.4,136.5,39.7,193.8,84.4c63.1,49.3,108.9,111.6,137.2,186.5c14.4,38,23,77.3,25.8,117.8
		c7.4,109.1-21.6,207.6-88.6,293.8C709.9,784.9,628.1,836.3,528.5,859c-36.1,8.2-72.6,11.5-109.5,9.8
		c-93.9-4.3-178.1-35.4-251.2-94.8c-74.3-60.4-123-137.4-146.2-230.4c-7.3-29.4-11-59.4-11.8-89.8C8.2,393.3,18.9,335.1,42,279.2
		c20.6-49.8,49.8-93.9,87-132.7c1.6-1.7,3.1-3.5,4.6-5.3C134.1,141.4,134.5,141.6,135,141.9z M255.4,469.7c20.6,0,41,0,61.2,0
		c0-20.7,0-41,0-61.2c-20.6,0-40.9,0-61.2,0C255.4,429.1,255.4,449.3,255.4,469.7z M337.2,469.6c20.8,0,41.1,0,61.3,0
		c0-20.6,0-40.8,0-61.1c-20.6,0-40.9,0-61.3,0C337.2,429,337.2,449.1,337.2,469.6z M316.8,549.6c0-20.6,0-41,0-61.3
		c-20.7,0-41,0-61.3,0c0,20.6,0,40.8,0,61.3C276.1,549.6,296.3,549.6,316.8,549.6z M398.7,488.4c-20.7,0-41,0-61.3,0
		c0,20.6,0,40.8,0,61.1c20.6,0,40.9,0,61.3,0C398.7,529,398.7,508.9,398.7,488.4z M352.2,643.6c0-9.7-2.8-18-10.3-23.9
		c-15.5-12.3-44.5-8.3-55.5,8.1c-11.7,17.4-11.4,36.5-3.6,55.2c9.9,23.8,53,23.6,64.7,3.9c2.3-3.9,3.5-8.5,5.4-13.3
		c-6.6-1.1-11.8-1.9-17.1-2.8c-0.5,1.6-0.7,2.7-1.1,3.8c-2.4,7.1-7.4,10.8-14.8,11.3c-7.9,0.6-15.5-0.8-19.1-8.7
		c-6-13.1-6.1-26.8,0.2-39.9c3.7-7.5,12.7-10.8,22-9.2c7.3,1.3,10.4,4.9,12.3,14.2c0.2,0.8,0.5,1.6,0.9,2.6
		C341.4,644.5,346.7,644.1,352.2,643.6z M628.2,638.3c0,29,0,57.6,0,86.3c5.7,0,11.1,0,17,0c0-9.7,0-19,0-28.7
		c17.4,10.5,34.2,4.8,39.3-13.2c2.8-10.1,2.9-20.4-0.3-30.5c-3.3-10.2-10.3-15.8-20.8-15c-6.5,0.5-12.9,3.2-19.5,4.9
		c-0.1-0.3-0.7-2-1.2-3.8C638,638.3,633.3,638.3,628.2,638.3z M420.9,668.9c-0.3-0.1-0.6-0.1-0.9-0.2c0-2,0.1-4,0-6
		c-0.8-12.4-8.2-22.2-19.1-24.5c-4.8-1-10-1.4-14.9-1c-11.4,1-20.4,6-24.5,17.3c-3.6,9.9-3.4,19.9-0.2,29.8
		c2.2,6.8,6.8,11.9,13.6,14.4c9.5,3.4,19.3,3.4,28.8-0.2c6.4-2.4,11.1-7,13.3-13.4C418.8,679.9,419.7,674.3,420.9,668.9z
		 M580.1,673.6c6.3,0,12.3,0,18.3,0c6.1,0,12.2,0,19.3,0c-0.8-7.3-0.7-13.8-2.2-20c-2.4-10-9.8-15.2-19.8-16.3
		c-12.3-1.3-23.6,1.3-30.2,12.9c-2.8,5-4.4,11.2-4.7,17c-1.2,22.7,10.9,36.7,36,33.6c9.7-1.2,18.6-8.2,19.5-18.6
		c-4.7-1.1-9.5-2.3-14.1-3.4c-4,7.9-7.9,10-14.8,8.1C582.2,685.3,579.9,681.4,580.1,673.6z M448.9,699.7c0-12.7,0-24.8,0-36.9
		c0-7.7,2.2-10.1,10-11c6.5-0.7,9.4,1.7,9.5,8.3c0.2,8.5,0,17,0,25.5c0,4.6,0,9.2,0,14.1c6.2,0,11.8,0,17.6,0c0.2-1.1,0.5-2.1,0.5-3
		c-0.1-14.8,0.1-29.7-0.6-44.4c-0.5-9.5-7-14.7-16.6-15.2c-8-0.4-14.9,2-21.7,6.8c-0.5-2.1-0.8-3.7-1.2-5.3c-5.2,0-10.3,0-15.2,0
		c0,20.6,0,40.8,0,61.2C437.2,699.7,442.6,699.7,448.9,699.7z M197.5,699.1c-11.7-16.2-23.2-32.2-34.7-48.2
		c11.1-12.1,21.8-23.9,33-36.1c-7.6-1.8-12.8-0.6-17.2,5.1c-5.2,6.7-11.3,12.6-17.1,18.9c-4.9,5.3-9.8,10.5-14.7,15.8
		c-0.4-0.2-0.7-0.3-1.1-0.5c0-13.2,0-26.4,0-39.7c-3.8,0-7.1,0-10.4,0c0,28.6,0,57,0,85.1c3.7,0,7,0,10.6,0c0-7.3,0.7-14.4-0.2-21.2
		c-1.1-8.7,3.7-13.4,9.5-18.5c8.1,10.9,16.6,21.2,23.8,32.3C183.6,698.9,188.7,701.6,197.5,699.1z M539.1,675.9
		c-0.5,1.4-0.8,2.1-1,2.9c-1.9,5.9-4.6,8.1-10.3,8.2c-5.7,0.1-9.8-2-10.6-7.7c-1-7.1-1-14.5,0-21.5c0.8-5.3,5.6-7.3,11.6-6.9
		c5.3,0.4,7.4,3.8,8.2,8.5c0.2,0.9,0.5,1.9,0.8,3.1c5.2-0.7,10.3-1.4,15.2-2.1c0.1-10.9-6.1-20.3-16.2-22.1
		c-6.6-1.2-14.1-1.2-20.5,0.6c-13.8,3.7-18.5,14.6-19.6,28c-1.9,22.7,12.1,36.7,34.7,34c12.5-1.5,21-10,21.9-22.2
		C548.8,677.8,544.1,676.9,539.1,675.9z M690.3,651.2c3,0.3,5.9,0.5,9.1,0.8c0,3.8,0,7.1,0,10.4c0.1,8-0.1,16,0.5,24
		c0.7,8.4,5.7,13.4,13.9,14.5c3.9,0.5,8.1,0.4,11.9-0.2c11.7-2,11.9-2.4,9.2-13.9c-0.1-0.6-0.3-1.2-0.5-2.1
		c-2.7,0.8-5.2,1.6-7.8,2.2c-5.7,1.2-9-1.4-9.2-7.2c-0.1-4.7,0-9.3,0-14c0-4.6,0-9.2,0-14.2c5.9,0,10.9,0,16,0c0-4.5,0-8.6,0-13.2
		c-5.4,0-10.4,0-16.1,0c0-7,0-13.4,0-20.4c-6.3,0.9-12,1.7-18.2,2.5c0,6.1,0,11.8,0,17.7c-3.3,0.2-6.1,0.3-9,0.4
		C690.3,642.9,690.3,646.9,690.3,651.2z M240,639.1c-3.3,0-6,0-8.7,0c0,3.1,0,5.7,0,8.5c3,0.2,5.7,0.3,8.7,0.4
		c0,12.3-0.1,24.1,0,35.9c0.1,6.1,1.2,12.2,7.6,15.1c8.4,3.8,16.4,2.1,24.4-2.1c-0.8-2.6-1.5-4.9-2-6.5c-4.6,0.6-8.5,1.3-12.4,1.5
		c-4,0.2-6.5-2.2-6.6-5.9c-0.2-12.6-0.1-25.2-0.1-38.2c3.7,0,6.8,0,9.9,0c7.6,0,8.1-0.6,6-8.9c-5.1,0-10.3,0-16.1,0
		c0-6.6,0-12.6,0-19c-2.4,0.4-4.2,1.1-5.9,1c-4-0.2-5.2,1.5-4.9,5.4C240.3,630.3,240,634.3,240,639.1z M219.5,699.6
		c0-20.5,0-40.4,0-60.3c-3.7,0-6.9,0-10.1,0c0,20.3,0,40.4,0,60.3C212.9,699.6,216.1,699.6,219.5,699.6z M206.9,619.8
		c0,4.8,3,8,7.5,8c4.6,0,7.6-3.1,7.6-8c0-5.1-2.6-7.8-7.5-7.8C209.7,612,206.9,614.8,206.9,619.8z"/>
	<path d="M241.9,176.7c-0.2-2.8-0.3-4.4-0.3-6c0-34.3,0-68.6-0.1-102.9c0-3.7,1.1-5.5,4.5-7.2c40.4-19.8,82.6-33.4,127.2-39.7
		c4.2-0.6,8.5-1.2,14.1-2.1C338.5,71.7,290.7,123.7,241.9,176.7z"/>
	<path d="M645.9,669c0-2.5,0-5,0-7.5c0-6.5,2.4-9.1,9.7-10.3c5-0.8,10.1,1.9,10.7,7.3c0.7,6.9,1,14.3-0.6,21
		c-2.3,9.6-12.8,8.3-18.6,3.9c-0.8-0.6-1.1-2.3-1.1-3.5C645.8,676.3,645.9,672.7,645.9,669z"/>
	<path d="M377.5,669.2c0.4-3.4,0.5-6.4,1.2-9.2c1.8-7.1,5.7-9.8,12.5-9.3c6,0.5,9.4,3.8,9.6,11c0.2,6.2,0,12.6-1.1,18.7
		c-1,5.2-5.2,7.6-10.4,7.5c-5.5-0.2-9-2.7-10.4-8.2C378.2,676.2,378,672.5,377.5,669.2z"/>
	<path d="M598,661.8c-5.9,0-11.8,0-17.7,0c-0.5-7.3,3.2-11.8,9.6-11.8C595.8,650,598.5,653.8,598,661.8z"/>
</g>
</svg>
