<?xml version="1.0" encoding="utf-8"?>
<!-- Generator: Adobe Illustrator 16.0.0, SVG Export Plug-In . SVG Version: 6.00 Build 0)  -->
<!DOCTYPE svg PUBLIC "-//W3C//DTD SVG 1.1//EN" "http://www.w3.org/Graphics/SVG/1.1/DTD/svg11.dtd">
<svg version="1.1" id="Camada_1" xmlns="http://www.w3.org/2000/svg" xmlns:xlink="http://www.w3.org/1999/xlink" x="0px" y="0px"
	 width="612px" height="621px" viewBox="0 86.5 612 621" enable-background="new 0 86.5 612 621" xml:space="preserve">
<g>
	<path fill="#FBED2B" d="M94.748,187.485c0,64.85,0,129.699,0,194.479c0.281,0.14,0.562,0.351,0.842,0.491
		c44.777-48.708,89.484-97.344,134.542-146.333c5.334,7.159,10.457,13.966,15.51,20.774
		c55.936,75.307,111.873,150.613,167.809,225.921c5.614,7.579,11.229,15.229,16.984,22.739c0.771,0.982,2.386,1.965,3.649,1.965
		c26.88,0.141,53.831,0.07,80.711,0.07c0.562,0,1.123-0.07,2.456-0.211c-78.956-109.346-157.562-218.2-236.448-327.335
		c3.088-3.369,6.106-6.808,9.264-10.247c19.932-21.687,39.864-43.374,59.866-64.99c0.913-0.982,2.737-1.825,4.001-1.614
		c50.462,8.001,95.8,27.863,136.016,59.235c44.285,34.601,76.43,78.325,96.291,130.893c10.107,26.669,16.143,54.251,18.107,82.676
		c5.194,76.571-15.159,145.701-62.182,206.2c-43.936,56.567-101.346,92.642-171.248,108.573
		c-25.337,5.755-50.953,8.071-76.851,6.878c-65.902-3.018-124.997-24.845-176.301-66.534
		C65.622,588.724,31.442,534.683,15.16,469.412c-5.124-20.634-7.72-41.689-8.282-63.025c-1.123-42.46,6.387-83.307,22.599-122.54
		c14.458-34.951,34.951-65.902,61.06-93.133c1.123-1.193,2.176-2.457,3.229-3.72C94.116,187.134,94.397,187.274,94.748,187.485z
		 M179.249,417.547c14.458,0,28.775,0,42.953,0c0-14.528,0-28.776,0-42.953c-14.458,0-28.705,0-42.953,0
		C179.249,389.052,179.249,403.229,179.249,417.547z M236.659,417.477c14.598,0,28.845,0,43.022,0c0-14.458,0-28.635,0-42.882
		c-14.458,0-28.705,0-43.022,0C236.659,388.981,236.659,403.088,236.659,417.477z M222.341,473.623c0-14.458,0-28.775,0-43.022
		c-14.528,0-28.775,0-43.022,0c0,14.458,0,28.635,0,43.022C193.776,473.623,207.954,473.623,222.341,473.623z M279.822,430.671
		c-14.528,0-28.775,0-43.022,0c0,14.458,0,28.635,0,42.882c14.458,0,28.705,0,43.022,0
		C279.822,459.165,279.822,445.059,279.822,430.671z M247.186,539.596c0-6.808-1.965-12.634-7.229-16.774
		c-10.878-8.632-31.232-5.825-38.952,5.686c-8.211,12.212-8.001,25.616-2.526,38.741c6.948,16.703,37.197,16.563,45.409,2.737
		c1.614-2.737,2.457-5.966,3.79-9.335c-4.632-0.771-8.282-1.333-12.001-1.965c-0.351,1.123-0.491,1.895-0.772,2.667
		c-1.685,4.982-5.194,7.58-10.387,7.931c-5.544,0.421-10.878-0.562-13.405-6.106c-4.211-9.193-4.281-18.809,0.141-28.003
		c2.597-5.264,8.913-7.58,15.44-6.457c5.123,0.912,7.299,3.439,8.632,9.966c0.141,0.562,0.351,1.123,0.632,1.825
		C239.606,540.228,243.326,539.946,247.186,539.596z M440.893,535.876c0,20.353,0,40.426,0,60.568c4.001,0,7.79,0,11.932,0
		c0-6.809,0-13.335,0-20.143c12.212,7.369,24.002,3.368,27.582-9.265c1.965-7.089,2.035-14.317-0.211-21.406
		c-2.316-7.158-7.229-11.089-14.598-10.527c-4.563,0.351-9.054,2.246-13.687,3.439c-0.069-0.211-0.491-1.404-0.842-2.667
		C447.771,535.876,444.472,535.876,440.893,535.876z M295.402,557.352c-0.21-0.07-0.421-0.07-0.632-0.14c0-1.404,0.07-2.808,0-4.211
		c-0.562-8.703-5.755-15.581-13.405-17.195c-3.369-0.702-7.019-0.982-10.458-0.702c-8.001,0.702-14.317,4.211-17.195,12.142
		c-2.527,6.948-2.386,13.967-0.141,20.915c1.544,4.772,4.772,8.352,9.545,10.106c6.667,2.386,13.545,2.386,20.213-0.141
		c4.492-1.685,7.791-4.913,9.334-9.404C293.928,565.072,294.56,561.142,295.402,557.352z M407.135,560.65c4.421,0,8.632,0,12.843,0
		c4.281,0,8.563,0,13.546,0c-0.562-5.123-0.491-9.686-1.544-14.036c-1.685-7.019-6.878-10.668-13.896-11.44
		c-8.633-0.912-16.563,0.912-21.195,9.054c-1.965,3.509-3.088,7.86-3.299,11.932c-0.842,15.932,7.65,25.757,25.267,23.581
		c6.808-0.842,13.054-5.755,13.686-13.054c-3.299-0.772-6.668-1.614-9.896-2.387c-2.807,5.545-5.544,7.019-10.387,5.686
		C408.608,568.862,406.994,566.125,407.135,560.65z M315.054,578.969c0-8.914,0-17.406,0-25.898c0-5.403,1.544-7.088,7.019-7.72
		c4.562-0.491,6.597,1.193,6.667,5.825c0.141,5.966,0,11.931,0,17.896c0,3.229,0,6.457,0,9.896c4.352,0,8.282,0,12.353,0
		c0.141-0.772,0.351-1.475,0.351-2.105c-0.07-10.388,0.07-20.845-0.421-31.162c-0.351-6.667-4.913-10.316-11.65-10.668
		c-5.614-0.28-10.457,1.404-15.229,4.772c-0.352-1.474-0.562-2.597-0.843-3.72c-3.649,0-7.229,0-10.668,0
		c0,14.458,0,28.635,0,42.952C306.842,578.969,310.632,578.969,315.054,578.969z M138.612,578.547
		c-8.211-11.369-16.283-22.599-24.354-33.828c7.791-8.492,15.3-16.773,23.161-25.336c-5.334-1.264-8.984-0.421-12.072,3.579
		c-3.649,4.702-7.931,8.843-12.001,13.265c-3.439,3.72-6.878,7.369-10.317,11.089c-0.281-0.141-0.491-0.21-0.772-0.351
		c0-9.265,0-18.528,0-27.863c-2.667,0-4.983,0-7.299,0c0,20.073,0,40.005,0,59.727c2.597,0,4.913,0,7.439,0
		c0-5.124,0.491-10.106-0.141-14.879c-0.772-6.106,2.597-9.404,6.667-12.984c5.685,7.65,11.65,14.879,16.704,22.67
		C128.857,578.407,132.436,580.302,138.612,578.547z M378.359,562.265c-0.352,0.982-0.562,1.474-0.702,2.035
		c-1.333,4.141-3.229,5.686-7.229,5.755c-4.001,0.07-6.878-1.403-7.439-5.403c-0.702-4.983-0.702-10.177,0-15.09
		c0.562-3.72,3.93-5.123,8.141-4.843c3.72,0.281,5.194,2.667,5.756,5.966c0.14,0.632,0.351,1.333,0.562,2.176
		c3.649-0.491,7.229-0.982,10.667-1.474c0.07-7.65-4.28-14.248-11.369-15.511c-4.632-0.843-9.896-0.843-14.388,0.421
		c-9.686,2.597-12.984,10.247-13.756,19.651c-1.334,15.932,8.492,25.758,24.354,23.862c8.772-1.053,14.738-7.019,15.37-15.581
		C385.167,563.599,381.868,562.967,378.359,562.265z M484.477,544.93c2.105,0.21,4.141,0.351,6.387,0.562c0,2.667,0,4.982,0,7.299
		c0.07,5.614-0.07,11.229,0.351,16.844c0.491,5.896,4.001,9.405,9.756,10.177c2.737,0.351,5.685,0.281,8.352-0.141
		c8.212-1.403,8.353-1.685,6.457-9.755c-0.07-0.422-0.21-0.843-0.351-1.475c-1.896,0.562-3.649,1.123-5.475,1.545
		c-4,0.842-6.316-0.983-6.457-5.054c-0.07-3.299,0-6.527,0-9.825c0-3.229,0-6.457,0-9.967c4.141,0,7.65,0,11.229,0
		c0-3.158,0-6.035,0-9.264c-3.79,0-7.299,0-11.3,0c0-4.913,0-9.405,0-14.317c-4.421,0.632-8.422,1.192-12.773,1.754
		c0,4.281,0,8.282,0,12.423c-2.315,0.141-4.28,0.211-6.316,0.28C484.477,539.104,484.477,541.911,484.477,544.93z M168.44,536.438
		c-2.316,0-4.211,0-6.106,0c0,2.176,0,4,0,5.965c2.105,0.141,4,0.211,6.106,0.281c0,8.633-0.07,16.914,0,25.196
		c0.07,4.28,0.842,8.562,5.334,10.598c5.896,2.667,11.51,1.474,17.125-1.475c-0.562-1.824-1.053-3.438-1.403-4.562
		c-3.229,0.421-5.966,0.912-8.703,1.053c-2.807,0.141-4.562-1.544-4.632-4.141c-0.141-8.844-0.07-17.687-0.07-26.811
		c2.597,0,4.772,0,6.948,0c5.334,0,5.685-0.421,4.211-6.246c-3.58,0-7.229,0-11.299,0c0-4.632,0-8.843,0-13.335
		c-1.685,0.281-2.948,0.772-4.141,0.702c-2.807-0.141-3.649,1.053-3.439,3.79C168.651,530.261,168.44,533.068,168.44,536.438z
		 M154.053,578.898c0-14.388,0-28.354,0-42.321c-2.597,0-4.843,0-7.088,0c0,14.248,0,28.354,0,42.321
		C149.42,578.898,151.667,578.898,154.053,578.898z M145.209,522.892c0,3.369,2.105,5.615,5.264,5.615
		c3.228,0,5.333-2.176,5.333-5.615c0-3.579-1.825-5.475-5.264-5.475C147.175,517.417,145.209,519.383,145.209,522.892z"/>
	<path fill="#FBED2B" d="M169.774,211.909c-0.141-1.965-0.21-3.088-0.21-4.211c0-24.073,0-48.146-0.07-72.219
		c0-2.597,0.772-3.86,3.158-5.053c28.354-13.896,57.972-23.441,89.273-27.863c2.948-0.421,5.965-0.842,9.896-1.474
		C237.571,138.216,204.023,174.711,169.774,211.909z"/>
	<path fill="#FBED2B" d="M453.315,557.422c0-1.755,0-3.509,0-5.264c0-4.562,1.685-6.387,6.808-7.229
		c3.509-0.562,7.089,1.333,7.51,5.123c0.491,4.843,0.701,10.036-0.421,14.738c-1.614,6.738-8.983,5.825-13.055,2.737
		c-0.562-0.421-0.771-1.614-0.771-2.456C453.245,562.546,453.315,560.019,453.315,557.422z"/>
	<path fill="#FBED2B" d="M264.943,557.563c0.281-2.387,0.351-4.492,0.842-6.457c1.264-4.983,4-6.878,8.773-6.527
		c4.211,0.352,6.598,2.667,6.738,7.721c0.14,4.352,0,8.843-0.772,13.124c-0.702,3.649-3.649,5.334-7.299,5.264
		c-3.86-0.141-6.316-1.895-7.299-5.755C265.434,562.476,265.293,559.879,264.943,557.563z"/>
	<path fill="#FBED2B" d="M419.697,552.369c-4.141,0-8.281,0-12.423,0c-0.351-5.124,2.246-8.282,6.738-8.282
		C418.153,544.087,420.048,546.754,419.697,552.369z"/>
</g>
</svg>
